<?xml version="1.0" standalone="no"?>
<!DOCTYPE svg PUBLIC "-//W3C//DTD SVG 1.1//EN"
  "http://www.w3.org/Graphics/SVG/1.1/DTD/svg11.dtd">
<svg width="22.5mm" height="181.89799499511716mm" viewBox="-11.5 -90.79799652099608 22.5 181.89799499511716" xmlns="http://www.w3.org/2000/svg" version="1.1">
	<title>svgOutput</title>
	<desc>made with tinkercad</desc>
<path d="M 3.4000000953674316 -89.79799652099608 L 3.4000000953674316 -89.78600311279295 L 4.5 -89.78600311279295 L 4.5 -81.9199981689453 L 4.5 -76.12400054931639 L 4.5 -65.53600311279295 L 4.5 -49.15200042724608 L 4.5 -45.381999969482415 L 4.5 -39.950000762939446 L 10 -39.950000762939446 L 10 -32.76800155639648 L 10 -16.38400077819824 L 10 1.1102230246251565e-16 L 10 16.38400077819824 L 10 32.76800155639648 L 10 40.048999786376946 L 4.5 40.048999786376946 L 4.5 45.69400024414062 L 4.5 49.15200042724608 L 4.5 65.53600311279295 L 4.5 76.43800354003905 L 4.5 90.09999847412108 L -7.5 90.09999847412108 L -10.5 90.09999847412108 L -10.5 76.43800354003905 L -7.5 76.43800354003905 L 1.5 76.43800354003905 L 1.5 65.53600311279295 L 1.5 49.15200042724608 L 1.5 45.69400024414062 L 1.5 40.048999786376946 L 0.6242756247520447 40.048999786376946 L 0 40.048999786376946 L -8.192000389099121 40.048999786376946 L -9.58505630493164 40.048999786376946 L -9.58505630493164 32.76800155639648 L -9.58505630493164 24.57600021362304 L -9.58505630493164 16.38400077819824 L -9.58505630493164 8.19200038909912 L -9.58505630493164 1.1102230246251565e-16 L -9.58505630493164 -8.19200038909912 L -9.58505630493164 -16.38400077819824 L -9.58505630493164 -24.57600021362304 L -9.58505630493164 -32.76800155639648 L -9.58505630493164 -39.950000762939446 L -8.192000389099121 -39.950000762939446 L -4.380407810211182 -39.950000762939446 L 0 -39.950000762939446 L 1.5 -39.950000762939446 L 1.5 -45.381999969482415 L 1.5 -49.15200042724608 L 1.5 -65.53600311279295 L 1.5 -76.12400054931639 L 1.5 -76.23799896240233 L -7.199999809265137 -76.23799896240233 L -7.199999809265137 -76.20300292968749 L -10.199999809265137 -76.20300292968749 L -10.199999809265137 -81.9199981689453 L -10.199999809265137 -89.78600311279295 L -7.800000190734863 -89.78600311279295 L -7.800000190734863 -89.79799652099608 L 2.200000047683716 -89.79799652099608 L 3.4000000953674316 -89.79799652099608 z" fill="none" stroke="rgb(255,0,0)" stroke-width="0.001mm" />
</svg>