<?xml version="1.0" standalone="no"?>
<!DOCTYPE svg PUBLIC "-//W3C//DTD SVG 1.1//EN"
  "http://www.w3.org/Graphics/SVG/1.1/DTD/svg11.dtd">
<svg width="29mm" height="45.15563392639159mm" viewBox="-41 -14.155633926391598 29 45.15563392639159" xmlns="http://www.w3.org/2000/svg" version="1.1">
	<title>svgOutput</title>
	<desc>made with tinkercad</desc>
<path d="M -13 29.999999999999993 L -14 29.999999999999993 L -28.503000259399414 29.999999999999993 L -40 29.999999999999993 L -40 4.499999999999999 L -40 3.999999999999999 L -40 2.2817451953887935 L -40 -1.0589908361434932 L -40 -3.746000051498412 L -40 -5.931248664855956 L -40 -6.844366073608397 L -40 -9.999999999999998 L -40 -12.981829643249508 L -40 -13.155633926391598 L -24.069000244140625 -13.155633926391598 L -14 -13.155633926391598 L -13 -13.155633926391598 L -13 -13.073587417602536 L -13 -6.926412582397459 L -13 -5.956768989562987 L -13 -5.931248664855956 L -13 -3.759000062942504 L -13 -3.746000051498412 L -13 -1.0656130313873287 L -13 -1.0589908361434932 L -13 2.279685258865356 L -13 2.2817451953887935 L -13 3.999999999999999 L -13 4.499999999999999 L -13 29.999999999999993 M -27.118999481201172 24.903999328613274 L -26.5 25.003000259399407 L -25.881000518798828 24.903999328613274 L -25.322999954223633 24.62000083923339 L -25.27899932861328 24.57600021362304 L -24.8799991607666 24.17700004577636 L -24.59600067138672 23.61899948120117 L -24.49799919128418 22.999999999999996 L -24.59600067138672 22.381000518798825 L -24.8799991607666 21.82299995422363 L -25.322999954223633 21.379999160766598 L -25.881000518798828 21.096000671386715 L -26.5 20.997999191284176 L -27.118999481201172 21.096000671386715 L -27.677000045776367 21.379999160766598 L -28.1200008392334 21.82299995422363 L -28.40399932861328 22.381000518798825 L -28.503000259399414 22.999999999999996 L -28.40399932861328 23.61899948120117 L -28.1200008392334 24.17700004577636 L -27.72100067138672 24.57600021362304 L -27.677000045776367 24.62000083923339 L -27.118999481201172 24.903999328613274 z" fill="none" stroke="rgb(255,0,0)" stroke-width="0.001mm" />
</svg>